<svg width="32" height="32" viewBox="0 0 32 32" fill="none" xmlns="http://www.w3.org/2000/svg">
<rect width="32" height="32" fill="#04C35C"/>
<path d="M4 16L6.66667 13.3333M6.66667 13.3333L16 4L25.3333 13.3333M6.66667 13.3333V26.6667C6.66667 27.403 7.26362 28 8 28H12M25.3333 13.3333L28 16M25.3333 13.3333V26.6667C25.3333 27.403 24.7364 28 24 28H20M12 28C12.7364 28 13.3333 27.403 13.3333 26.6667V21.3333C13.3333 20.597 13.9303 20 14.6667 20H17.3333C18.0697 20 18.6667 20.597 18.6667 21.3333V26.6667C18.6667 27.403 19.2636 28 20 28M12 28H20" stroke="#F9F9F9" stroke-width="2" stroke-linecap="round" stroke-linejoin="round"/>
</svg>
