<svg width="32" height="32" viewBox="0 0 32 32" fill="none" xmlns="http://www.w3.org/2000/svg">
<rect width="32" height="32" fill="#04C35C"/>
<path d="M6 16L8.22222 14M8.22222 14L16 7L23.7778 14M8.22222 14V24C8.22222 24.5523 8.71968 25 9.33333 25H12.6667M23.7778 14L26 16M23.7778 14V24C23.7778 24.5523 23.2803 25 22.6667 25H19.3333M12.6667 25C13.2803 25 13.7778 24.5523 13.7778 24V20C13.7778 19.4477 14.2752 19 14.8889 19H17.1111C17.7248 19 18.2222 19.4477 18.2222 20V24C18.2222 24.5523 18.7197 25 19.3333 25M12.6667 25H19.3333" stroke="#F9F9F9" stroke-width="2" stroke-linecap="round" stroke-linejoin="round"/>
</svg>
