<svg width="400" height="330" viewBox="0 0 400 330" fill="none" xmlns="http://www.w3.org/2000/svg">
<g clip-path="url(#clip0_114_1790)">
<path d="M10.5912 329.272C10.5912 329.676 10.8733 330 11.2245 330H399.367C399.718 330 400 329.676 400 329.272C400 328.868 399.718 328.544 399.367 328.544H11.2245C10.8733 328.544 10.5912 328.868 10.5912 329.272Z" fill="#3F3D58"/>
<g filter="url(#filter0_d_114_1790)">
<path d="M134.88 58.2098H10.3943C5.64687 58.2098 1.78296 53.7683 1.78296 48.3114C1.78296 42.8544 5.64687 38.413 10.3943 38.413H134.88C139.628 38.413 143.492 42.8544 143.492 48.3114C143.492 53.7683 139.628 58.2098 134.88 58.2098ZM10.3943 39.6365C6.23231 39.6365 2.8474 43.5273 2.8474 48.3114C2.8474 53.0954 6.23231 56.9862 10.3943 56.9862H134.88C139.042 56.9862 142.427 53.0954 142.427 48.3114C142.427 43.5273 139.042 39.6365 134.88 39.6365H10.3943Z" fill="#F9F9F9"/>
</g>
<g filter="url(#filter1_d_114_1790)">
<path d="M134.88 174.048H10.3943C5.79057 174.048 2.04907 169.747 2.04907 164.456C2.04907 159.164 5.79057 154.863 10.3943 154.863H134.88C139.484 154.863 143.226 159.164 143.226 164.456C143.226 169.747 139.484 174.048 134.88 174.048Z" fill="#04C35C"/>
<path d="M134.88 173.548H10.3943C6.12985 173.548 2.54907 169.539 2.54907 164.456C2.54907 159.372 6.12985 155.363 10.3943 155.363H134.88C139.145 155.363 142.726 159.372 142.726 164.456C142.726 169.539 139.145 173.548 134.88 173.548Z" stroke="#F9F9F9"/>
</g>
<g filter="url(#filter2_d_114_1790)">
<path d="M94.0857 19.1851H8.3452C3.7415 19.1851 0 14.8843 0 9.59253C0 4.30073 3.7415 0 8.3452 0H94.0857C98.6894 0 102.431 4.30073 102.431 9.59253C102.431 14.8843 98.6894 19.1851 94.0857 19.1851Z" fill="#F9F9F9"/>
</g>
<g filter="url(#filter3_d_114_1790)">
<path d="M134.88 96.9224H10.3943C5.64687 96.9224 1.78296 92.481 1.78296 87.024C1.78296 81.567 5.64687 77.1256 10.3943 77.1256H134.88C139.628 77.1256 143.492 81.567 143.492 87.024C143.492 92.481 139.628 96.9224 134.88 96.9224ZM10.3943 78.3492C6.23231 78.3492 2.8474 82.24 2.8474 87.024C2.8474 91.808 6.23231 95.6989 10.3943 95.6989H134.88C139.042 95.6989 142.427 91.808 142.427 87.024C142.427 82.24 139.042 78.3492 134.88 78.3492H10.3943Z" fill="#F9F9F9"/>
</g>
<g filter="url(#filter4_d_114_1790)">
<path d="M134.88 135.641H10.3943C5.64687 135.641 1.78296 131.2 1.78296 125.743C1.78296 120.286 5.64687 115.844 10.3943 115.844H134.88C139.628 115.844 143.492 120.286 143.492 125.743C143.492 131.2 139.628 135.641 134.88 135.641ZM10.3943 117.068C6.23231 117.068 2.8474 120.959 2.8474 125.743C2.8474 130.527 6.23231 134.418 10.3943 134.418H134.88C139.042 134.418 142.427 130.527 142.427 125.743C142.427 120.959 139.042 117.068 134.88 117.068H10.3943Z" fill="#F9F9F9"/>
</g>
<path d="M38.7403 31.3042H6.11521C5.33628 31.3042 4.70483 32.0287 4.70483 32.9223C4.70483 33.816 5.33628 34.5405 6.11521 34.5405H38.7403C39.5192 34.5405 40.1506 33.816 40.1506 32.9223C40.1506 32.0287 39.5192 31.3042 38.7403 31.3042Z" fill="#5E6367"/>
<path d="M38.7403 70.9346H6.11521C5.33628 70.9346 4.70483 71.659 4.70483 72.5527C4.70483 73.4464 5.33628 74.1708 6.11521 74.1708H38.7403C39.5192 74.1708 40.1506 73.4464 40.1506 72.5527C40.1506 71.659 39.5192 70.9346 38.7403 70.9346Z" fill="#5E6367"/>
<path d="M38.7403 110.571H6.11521C5.33628 110.571 4.70483 111.295 4.70483 112.189C4.70483 113.083 5.33628 113.807 6.11521 113.807H38.7403C39.5192 113.807 40.1506 113.083 40.1506 112.189C40.1506 111.295 39.5192 110.571 38.7403 110.571Z" fill="#5E6367"/>
<path d="M237.945 80.9125L226.044 85.4151V65.7223H236.843L237.945 80.9125Z" fill="#9F616A"/>
<path d="M227.518 71.1731C234.067 71.1731 239.376 65.0707 239.376 57.5429C239.376 50.0152 234.067 43.9127 227.518 43.9127C220.969 43.9127 215.661 50.0152 215.661 57.5429C215.661 65.0707 220.969 71.1731 227.518 71.1731Z" fill="#9F616A"/>
<path d="M230.776 56.1909C228.79 56.1236 227.486 53.8172 226.715 51.7128C225.943 49.6083 225.15 47.1918 223.309 46.3231C221.802 45.6134 219.147 50.4158 217.96 49.1372C216.72 47.8036 217.928 40.9579 219.242 39.7282C220.557 38.4986 222.356 38.26 224.048 38.1682C228.178 37.948 232.335 38.3334 236.385 39.3061C238.892 39.9056 241.468 40.811 243.277 42.8911C245.566 45.5339 246.151 49.5165 246.316 53.2422C246.487 57.0535 246.295 61.0422 244.682 64.3764C243.07 67.7105 239.696 70.1698 236.46 69.3194C236.135 67.3006 236.465 65.2267 236.593 63.1712C236.715 61.1218 236.587 58.9072 235.496 57.2737C234.411 55.6403 232.08 54.9918 230.813 56.4417" fill="#2F2E43"/>
<path d="M245.364 60.9138C246.551 59.9166 247.972 59.0785 249.43 59.2865C251.005 59.5067 252.341 60.9994 252.746 62.7674C253.15 64.5354 252.698 66.4809 251.718 67.9246C250.744 69.3684 249.291 70.3228 247.759 70.7999C246.87 71.0752 245.896 71.1915 245.05 70.7755C243.804 70.1576 243.128 68.3284 243.618 66.8724" fill="#2F2E43"/>
<path d="M199.987 189.159C199.194 193.637 200.647 197.73 203.223 198.299C205.799 198.868 208.529 195.692 209.317 191.214C209.652 189.428 209.599 187.58 209.162 185.818L218.971 115.618L206.703 112.963L201.967 184.234C200.961 185.678 200.285 187.366 199.987 189.165V189.159Z" fill="#9F616A"/>
<path d="M225.916 76.3793H217.545C211.626 77.4132 210.019 81.0409 208.672 87.7459C206.618 97.9747 203.994 111.593 204.516 111.795C205.351 112.113 219.604 119.821 226.869 118.059L225.916 76.3793Z" fill="#F9F9F9"/>
<path d="M234.011 299.987H222.867V318.162H234.011V299.987Z" fill="#9F616A"/>
<path d="M212.015 329.162C210.844 329.162 209.801 329.131 209.013 329.046C206.054 328.734 203.228 326.219 201.807 324.751C201.168 324.09 200.966 323.038 201.296 322.133C201.535 321.484 202.009 320.995 202.6 320.805L210.424 318.236L223.09 308.411L223.234 308.704C223.287 308.814 224.533 311.39 224.948 313.127C225.107 313.788 225.065 314.339 224.825 314.767C224.66 315.061 224.426 315.232 224.24 315.33C224.469 315.605 225.187 316.168 227.401 316.572C230.632 317.159 231.313 313.311 231.34 313.152L231.361 313.023L231.457 312.95C232.995 311.812 233.942 311.292 234.267 311.402C234.469 311.469 234.81 311.592 235.731 322.071C235.821 322.402 236.465 324.812 236.029 327.119C235.555 329.627 226.018 328.764 224.107 328.568C224.054 328.575 216.911 329.162 212.02 329.162H212.015Z" fill="#121214"/>
<path d="M265.746 285.707L256.289 292.486L264.657 307.908L274.113 301.129L265.746 285.707Z" fill="#9F616A"/>
<path d="M253.187 326.672C251.878 326.672 250.675 326.488 249.818 326.317C248.978 326.146 248.318 325.375 248.179 324.408C248.083 323.711 248.259 323.007 248.674 322.487L254.129 315.55L260.356 299.509L260.612 299.669C260.708 299.73 262.948 301.155 264.103 302.379C264.545 302.844 264.763 303.339 264.752 303.847C264.747 304.202 264.63 304.483 264.513 304.685C264.832 304.783 265.7 304.82 267.765 303.816C270.777 302.354 269.585 298.671 269.532 298.518L269.489 298.396L269.537 298.28C270.319 296.377 270.878 295.362 271.208 295.258C271.416 295.19 271.756 295.086 277.361 303.425C277.59 303.645 279.245 305.303 279.937 307.524C280.687 309.94 272.198 315.012 270.49 316.003C270.437 316.052 261.554 323.472 257.903 325.583C256.455 326.421 254.741 326.678 253.182 326.678L253.187 326.672Z" fill="#121214"/>
<path d="M242.218 147.993H211.014L208.183 181.359L220.573 304.642H236.502L230.132 233.438L255.971 297.723L270.128 286.332L249.951 226.317C249.951 226.317 257.158 174.036 251.495 161.011C245.832 147.993 242.218 147.993 242.218 147.993Z" fill="#373A3E"/>
<path d="M257.743 150.024H208.183L223.053 76.3793H244.645L257.743 150.024Z" fill="#F9F9F9"/>
<path d="M262.203 189.159C262.996 193.637 261.543 197.73 258.967 198.299C256.391 198.868 253.661 195.692 252.873 191.214C252.538 189.428 252.591 187.58 253.028 185.818L243.219 115.618L255.487 112.963L260.223 184.234C261.229 185.678 261.905 187.366 262.203 189.165V189.159Z" fill="#9F616A"/>
<path d="M236.273 76.3793H244.645C250.564 77.4132 252.171 81.0409 253.517 87.7459C255.572 97.9747 258.196 111.593 257.674 111.795C256.838 112.113 242.586 119.821 235.321 118.059L236.273 76.3793Z" fill="#F9F9F9"/>
</g>
<defs>
<filter id="filter0_d_114_1790" x="-2.21704" y="38.413" width="149.709" height="27.7969" filterUnits="userSpaceOnUse" color-interpolation-filters="sRGB">
<feFlood flood-opacity="0" result="BackgroundImageFix"/>
<feColorMatrix in="SourceAlpha" type="matrix" values="0 0 0 0 0 0 0 0 0 0 0 0 0 0 0 0 0 0 127 0" result="hardAlpha"/>
<feOffset dy="4"/>
<feGaussianBlur stdDeviation="2"/>
<feComposite in2="hardAlpha" operator="out"/>
<feColorMatrix type="matrix" values="0 0 0 0 0 0 0 0 0 0 0 0 0 0 0 0 0 0 0.25 0"/>
<feBlend mode="normal" in2="BackgroundImageFix" result="effect1_dropShadow_114_1790"/>
<feBlend mode="normal" in="SourceGraphic" in2="effect1_dropShadow_114_1790" result="shape"/>
</filter>
<filter id="filter1_d_114_1790" x="-1.95093" y="154.863" width="149.176" height="27.1851" filterUnits="userSpaceOnUse" color-interpolation-filters="sRGB">
<feFlood flood-opacity="0" result="BackgroundImageFix"/>
<feColorMatrix in="SourceAlpha" type="matrix" values="0 0 0 0 0 0 0 0 0 0 0 0 0 0 0 0 0 0 127 0" result="hardAlpha"/>
<feOffset dy="4"/>
<feGaussianBlur stdDeviation="2"/>
<feComposite in2="hardAlpha" operator="out"/>
<feColorMatrix type="matrix" values="0 0 0 0 0 0 0 0 0 0 0 0 0 0 0 0 0 0 0.25 0"/>
<feBlend mode="normal" in2="BackgroundImageFix" result="effect1_dropShadow_114_1790"/>
<feBlend mode="normal" in="SourceGraphic" in2="effect1_dropShadow_114_1790" result="shape"/>
</filter>
<filter id="filter2_d_114_1790" x="-4" y="0" width="110.431" height="27.1851" filterUnits="userSpaceOnUse" color-interpolation-filters="sRGB">
<feFlood flood-opacity="0" result="BackgroundImageFix"/>
<feColorMatrix in="SourceAlpha" type="matrix" values="0 0 0 0 0 0 0 0 0 0 0 0 0 0 0 0 0 0 127 0" result="hardAlpha"/>
<feOffset dy="4"/>
<feGaussianBlur stdDeviation="2"/>
<feComposite in2="hardAlpha" operator="out"/>
<feColorMatrix type="matrix" values="0 0 0 0 0 0 0 0 0 0 0 0 0 0 0 0 0 0 0.25 0"/>
<feBlend mode="normal" in2="BackgroundImageFix" result="effect1_dropShadow_114_1790"/>
<feBlend mode="normal" in="SourceGraphic" in2="effect1_dropShadow_114_1790" result="shape"/>
</filter>
<filter id="filter3_d_114_1790" x="-2.21704" y="77.1256" width="149.709" height="27.7969" filterUnits="userSpaceOnUse" color-interpolation-filters="sRGB">
<feFlood flood-opacity="0" result="BackgroundImageFix"/>
<feColorMatrix in="SourceAlpha" type="matrix" values="0 0 0 0 0 0 0 0 0 0 0 0 0 0 0 0 0 0 127 0" result="hardAlpha"/>
<feOffset dy="4"/>
<feGaussianBlur stdDeviation="2"/>
<feComposite in2="hardAlpha" operator="out"/>
<feColorMatrix type="matrix" values="0 0 0 0 0 0 0 0 0 0 0 0 0 0 0 0 0 0 0.25 0"/>
<feBlend mode="normal" in2="BackgroundImageFix" result="effect1_dropShadow_114_1790"/>
<feBlend mode="normal" in="SourceGraphic" in2="effect1_dropShadow_114_1790" result="shape"/>
</filter>
<filter id="filter4_d_114_1790" x="-2.21704" y="115.844" width="149.709" height="27.7969" filterUnits="userSpaceOnUse" color-interpolation-filters="sRGB">
<feFlood flood-opacity="0" result="BackgroundImageFix"/>
<feColorMatrix in="SourceAlpha" type="matrix" values="0 0 0 0 0 0 0 0 0 0 0 0 0 0 0 0 0 0 127 0" result="hardAlpha"/>
<feOffset dy="4"/>
<feGaussianBlur stdDeviation="2"/>
<feComposite in2="hardAlpha" operator="out"/>
<feColorMatrix type="matrix" values="0 0 0 0 0 0 0 0 0 0 0 0 0 0 0 0 0 0 0.25 0"/>
<feBlend mode="normal" in2="BackgroundImageFix" result="effect1_dropShadow_114_1790"/>
<feBlend mode="normal" in="SourceGraphic" in2="effect1_dropShadow_114_1790" result="shape"/>
</filter>
<clipPath id="clip0_114_1790">
<rect width="400" height="330" fill="white"/>
</clipPath>
</defs>
</svg>
