<svg width="142" height="30" viewBox="0 0 142 30" fill="none" xmlns="http://www.w3.org/2000/svg">
<rect width="30" height="30" fill="#04C35C"/>
<path d="M5.67578 14.5946L7.65776 12.6126M7.65776 12.6126L14.5947 5.67566L21.5316 12.6126M7.65776 12.6126V22.5225C7.65776 23.0698 8.10145 23.5135 8.64875 23.5135H11.6217M21.5316 12.6126L23.5136 14.5946M21.5316 12.6126V22.5225C21.5316 23.0698 21.088 23.5135 20.5406 23.5135H17.5677M11.6217 23.5135C12.169 23.5135 12.6127 23.0698 12.6127 22.5225V18.5585C12.6127 18.0112 13.0564 17.5676 13.6037 17.5676H15.5857C16.133 17.5676 16.5767 18.0112 16.5767 18.5585V22.5225C16.5767 23.0698 17.0204 23.5135 17.5677 23.5135M11.6217 23.5135H17.5677" stroke="#F9F9F9" stroke-width="1.5" stroke-linecap="round" stroke-linejoin="round"/>
<path d="M52.548 8.9H54.888V21.5H52.548V8.9ZM46.032 21.5H43.692V8.9H46.032V21.5ZM52.728 16.1H45.834V14.102H52.728V16.1ZM64.1683 21.68C63.1843 21.68 62.2783 21.518 61.4503 21.194C60.6223 20.87 59.9023 20.42 59.2903 19.844C58.6783 19.256 58.2043 18.572 57.8683 17.792C57.5323 17 57.3643 16.136 57.3643 15.2C57.3643 14.264 57.5323 13.406 57.8683 12.626C58.2043 11.834 58.6783 11.15 59.2903 10.574C59.9023 9.986 60.6223 9.53 61.4503 9.206C62.2783 8.882 63.1783 8.72 64.1503 8.72C65.1343 8.72 66.0343 8.882 66.8503 9.206C67.6783 9.53 68.3983 9.986 69.0103 10.574C69.6223 11.15 70.0963 11.834 70.4323 12.626C70.7683 13.406 70.9363 14.264 70.9363 15.2C70.9363 16.136 70.7683 17 70.4323 17.792C70.0963 18.584 69.6223 19.268 69.0103 19.844C68.3983 20.42 67.6783 20.87 66.8503 21.194C66.0343 21.518 65.1403 21.68 64.1683 21.68ZM64.1503 19.628C64.7863 19.628 65.3743 19.52 65.9143 19.304C66.4543 19.088 66.9223 18.782 67.3183 18.386C67.7143 17.978 68.0203 17.51 68.2363 16.982C68.4643 16.442 68.5783 15.848 68.5783 15.2C68.5783 14.552 68.4643 13.964 68.2363 13.436C68.0203 12.896 67.7143 12.428 67.3183 12.032C66.9223 11.624 66.4543 11.312 65.9143 11.096C65.3743 10.88 64.7863 10.772 64.1503 10.772C63.5143 10.772 62.9263 10.88 62.3863 11.096C61.8583 11.312 61.3903 11.624 60.9823 12.032C60.5863 12.428 60.2743 12.896 60.0463 13.436C59.8303 13.964 59.7223 14.552 59.7223 15.2C59.7223 15.836 59.8303 16.424 60.0463 16.964C60.2743 17.504 60.5863 17.978 60.9823 18.386C61.3783 18.782 61.8463 19.088 62.3863 19.304C62.9263 19.52 63.5143 19.628 64.1503 19.628ZM73.4166 21.5V8.9H75.3426L80.8506 18.098H79.8426L85.2606 8.9H87.1866L87.2046 21.5H84.9906L84.9726 12.374H85.4406L80.8326 20.06H79.7886L75.1086 12.374H75.6486V21.5H73.4166ZM92.768 14.138H99.032V16.064H92.768V14.138ZM92.948 19.538H100.058V21.5H90.608V8.9H99.806V10.862H92.948V19.538ZM105.622 21.5V16.514L106.144 17.954L100.672 8.9H103.174L107.566 16.19H106.162L110.59 8.9H112.894L107.422 17.954L107.962 16.514V21.5H105.622ZM119.785 21.68C118.801 21.68 117.895 21.518 117.067 21.194C116.239 20.87 115.519 20.42 114.907 19.844C114.295 19.256 113.821 18.572 113.485 17.792C113.149 17 112.981 16.136 112.981 15.2C112.981 14.264 113.149 13.406 113.485 12.626C113.821 11.834 114.295 11.15 114.907 10.574C115.519 9.986 116.239 9.53 117.067 9.206C117.895 8.882 118.795 8.72 119.767 8.72C120.751 8.72 121.651 8.882 122.467 9.206C123.295 9.53 124.015 9.986 124.627 10.574C125.239 11.15 125.713 11.834 126.049 12.626C126.385 13.406 126.553 14.264 126.553 15.2C126.553 16.136 126.385 17 126.049 17.792C125.713 18.584 125.239 19.268 124.627 19.844C124.015 20.42 123.295 20.87 122.467 21.194C121.651 21.518 120.757 21.68 119.785 21.68ZM119.767 19.628C120.403 19.628 120.991 19.52 121.531 19.304C122.071 19.088 122.539 18.782 122.935 18.386C123.331 17.978 123.637 17.51 123.853 16.982C124.081 16.442 124.195 15.848 124.195 15.2C124.195 14.552 124.081 13.964 123.853 13.436C123.637 12.896 123.331 12.428 122.935 12.032C122.539 11.624 122.071 11.312 121.531 11.096C120.991 10.88 120.403 10.772 119.767 10.772C119.131 10.772 118.543 10.88 118.003 11.096C117.475 11.312 117.007 11.624 116.599 12.032C116.203 12.428 115.891 12.896 115.663 13.436C115.447 13.964 115.339 14.552 115.339 15.2C115.339 15.836 115.447 16.424 115.663 16.964C115.891 17.504 116.203 17.978 116.599 18.386C116.995 18.782 117.463 19.088 118.003 19.304C118.543 19.52 119.131 19.628 119.767 19.628ZM134.452 21.68C132.724 21.68 131.368 21.194 130.384 20.222C129.412 19.25 128.926 17.846 128.926 16.01V8.9H131.266V15.92C131.266 17.216 131.542 18.158 132.094 18.746C132.658 19.334 133.45 19.628 134.47 19.628C135.49 19.628 136.276 19.334 136.828 18.746C137.38 18.158 137.656 17.216 137.656 15.92V8.9H139.96V16.01C139.96 17.846 139.468 19.25 138.484 20.222C137.512 21.194 136.168 21.68 134.452 21.68Z" fill="#272727"/>
</svg>
