<svg width="570" height="443" viewBox="0 0 570 443" fill="none" xmlns="http://www.w3.org/2000/svg">
<g clip-path="url(#clip0_114_1550)">
<path d="M324.561 216.614C337.387 216.614 347.784 206.208 347.784 193.373C347.784 180.537 337.387 170.132 324.561 170.132C311.735 170.132 301.337 180.537 301.337 193.373C301.337 206.208 311.735 216.614 324.561 216.614Z" fill="#E6E6E6"/>
<path d="M381.478 223.239L357.208 198.951C359.069 196.056 360.329 192.816 360.916 189.423C361.502 186.031 361.402 182.556 360.621 179.203C359.841 175.85 358.396 172.689 356.372 169.905C354.348 167.121 351.786 164.772 348.839 162.998C343.289 159.68 336.696 158.568 330.366 159.884C324.035 161.2 318.43 164.847 314.66 170.103C311.19 174.971 309.524 180.897 309.947 186.862C310.37 192.826 312.857 198.457 316.979 202.786C321.101 207.115 326.602 209.871 332.535 210.581C338.467 211.292 344.462 209.911 349.488 206.677L373.758 230.965C374.782 231.988 376.17 232.563 377.617 232.563C379.064 232.562 380.452 231.987 381.476 230.962C382.499 229.938 383.074 228.549 383.075 227.101C383.075 225.652 382.5 224.263 381.478 223.239ZM348.582 198.045C345.575 201.054 341.618 202.927 337.386 203.344C333.154 203.761 328.908 202.697 325.372 200.333C321.836 197.968 319.228 194.45 317.994 190.377C316.759 186.305 316.974 181.93 318.601 177.998C320.229 174.066 323.168 170.82 326.919 168.814C330.669 166.807 334.999 166.165 339.17 166.995C343.341 167.825 347.095 170.077 349.793 173.367C352.491 176.657 353.966 180.781 353.966 185.037C353.969 187.453 353.495 189.846 352.571 192.079C351.647 194.311 350.292 196.338 348.582 198.045Z" fill="#343B41"/>
<path d="M557.402 259.064C619.468 327.753 439.55 426.743 294.172 426.743C148.794 426.743 48.2153 350.043 30.942 259.064C-10.9398 38.4693 387.785 -101.739 294.172 91.3838C157.72 372.883 508.524 204.97 557.402 259.064Z" fill="#E6E6E6"/>
<path d="M529.554 275.32C591.62 344.009 411.702 443 266.324 443C120.946 443 20.3677 366.3 3.09439 275.32C-38.7875 54.7262 359.938 -85.4823 266.324 107.641C129.872 389.14 480.676 221.226 529.554 275.32Z" fill="#343B41"/>
<path d="M86.7884 114.276C43.2372 112.357 9.46964 102.955 9.91326 92.8724C10.1792 86.8274 22.5046 81.9664 43.7289 79.5364C43.8049 79.5272 43.8819 79.5332 43.9556 79.5539C44.0292 79.5746 44.0981 79.6096 44.1581 79.6571C44.2182 79.7045 44.2683 79.7634 44.3055 79.8303C44.3428 79.8972 44.3664 79.9708 44.3751 80.0468C44.3838 80.1229 44.3774 80.2 44.3562 80.2735C44.335 80.3471 44.2995 80.4158 44.2517 80.4756C44.2039 80.5354 44.1447 80.5851 44.0776 80.6219C44.0106 80.6587 43.9369 80.6819 43.8608 80.6901C23.8675 82.9794 11.3037 87.6669 11.0724 92.9234C10.6713 102.041 45.3682 111.288 86.8394 113.115C128.311 114.943 163.685 108.784 164.087 99.6657C164.319 94.3871 152.137 88.5964 132.295 84.5539C132.22 84.5388 132.149 84.5092 132.086 84.4666C132.022 84.424 131.968 84.3693 131.926 84.3057C131.884 84.242 131.854 84.1706 131.84 84.0957C131.825 84.0207 131.825 83.9436 131.841 83.8687C131.856 83.7939 131.886 83.7227 131.928 83.6594C131.971 83.5962 132.026 83.5419 132.09 83.4999C132.153 83.4578 132.225 83.4287 132.3 83.4143C132.375 83.3999 132.452 83.4005 132.527 83.4159C153.587 87.7068 165.513 93.6483 165.246 99.7168C164.802 109.8 130.339 116.195 86.7884 114.276Z" fill="#0DE872"/>
<path d="M48.1086 115.964C51.752 122.89 57.1489 128.737 63.7596 132.921C70.3702 137.104 77.9628 139.477 85.7775 139.801C93.5922 140.126 101.355 138.391 108.289 134.77C115.224 131.15 121.086 125.77 125.291 119.17C99.5241 119.517 73.7579 118.447 48.1086 115.964Z" fill="#0DE872"/>
<path d="M130.108 106.957C132.301 100.375 132.933 93.3732 131.954 86.5049C130.974 79.6366 128.411 73.0906 124.467 67.385C120.523 61.6794 115.306 56.9708 109.229 53.6318C103.152 50.2929 96.3819 48.4153 89.4544 48.1476C82.5269 47.8798 75.6322 49.2294 69.316 52.0894C62.9998 54.9494 57.4354 59.2413 53.0633 64.6255C48.6912 70.0098 45.6314 76.3384 44.126 83.1107C42.6205 89.883 42.7109 96.913 44.3898 103.644C72.6992 108.454 101.512 109.567 130.108 106.957Z" fill="#0DE872"/>
<path d="M97.9504 76.9868C100.834 76.9868 103.172 74.6473 103.172 71.7615C103.172 68.8756 100.834 66.5361 97.9504 66.5361C95.0667 66.5361 92.729 68.8756 92.729 71.7615C92.729 74.6473 95.0667 76.9868 97.9504 76.9868Z" fill="white"/>
<path d="M71.0774 97.3025C75.8836 97.3025 79.7798 93.4034 79.7798 88.5936C79.7798 83.7839 75.8836 79.8848 71.0774 79.8848C66.2712 79.8848 62.375 83.7839 62.375 88.5936C62.375 93.4034 66.2712 97.3025 71.0774 97.3025Z" fill="white"/>
<path d="M202.421 88.7717C205.625 88.7717 208.222 86.1724 208.222 82.9659C208.222 79.7595 205.625 77.1602 202.421 77.1602C199.217 77.1602 196.619 79.7595 196.619 82.9659C196.619 86.1724 199.217 88.7717 202.421 88.7717Z" fill="#0DE872"/>
<path d="M71.3045 266.433C73.227 266.433 74.7855 264.873 74.7855 262.949C74.7855 261.025 73.227 259.466 71.3045 259.466C69.382 259.466 67.8235 261.025 67.8235 262.949C67.8235 264.873 69.382 266.433 71.3045 266.433Z" fill="#E6E6E6"/>
<path d="M314.972 386.035C316.894 386.035 318.453 384.475 318.453 382.551C318.453 380.627 316.894 379.067 314.972 379.067C313.049 379.067 311.491 380.627 311.491 382.551C311.491 384.475 313.049 386.035 314.972 386.035Z" fill="#E6E6E6"/>
<path d="M88.1292 199.084C89.0905 199.084 89.8697 198.304 89.8697 197.342C89.8697 196.38 89.0905 195.601 88.1292 195.601C87.1679 195.601 86.3887 196.38 86.3887 197.342C86.3887 198.304 87.1679 199.084 88.1292 199.084Z" fill="#E6E6E6"/>
<path d="M232.009 329.137C232.97 329.137 233.749 328.357 233.749 327.395C233.749 326.433 232.97 325.653 232.009 325.653C231.048 325.653 230.268 326.433 230.268 327.395C230.268 328.357 231.048 329.137 232.009 329.137Z" fill="#E6E6E6"/>
<path d="M493.661 312.299C494.622 312.299 495.402 311.519 495.402 310.557C495.402 309.595 494.622 308.815 493.661 308.815C492.7 308.815 491.921 309.595 491.921 310.557C491.921 311.519 492.7 312.299 493.661 312.299Z" fill="#E6E6E6"/>
<path d="M411.858 363.972C412.82 363.972 413.599 363.192 413.599 362.23C413.599 361.268 412.82 360.488 411.858 360.488C410.897 360.488 410.118 361.268 410.118 362.23C410.118 363.192 410.897 363.972 411.858 363.972Z" fill="#E6E6E6"/>
<path d="M326.575 301.268C327.536 301.268 328.316 300.488 328.316 299.526C328.316 298.564 327.536 297.784 326.575 297.784C325.614 297.784 324.834 298.564 324.834 299.526C324.834 300.488 325.614 301.268 326.575 301.268Z" fill="#E6E6E6"/>
<path d="M216.345 129.412C217.306 129.412 218.085 128.633 218.085 127.671C218.085 126.709 217.306 125.929 216.345 125.929C215.383 125.929 214.604 126.709 214.604 127.671C214.604 128.633 215.383 129.412 216.345 129.412Z" fill="#E6E6E6"/>
<path d="M230.268 43.4856C231.23 43.4856 232.009 42.7057 232.009 41.7438C232.009 40.7818 231.23 40.002 230.268 40.002C229.307 40.002 228.528 40.7818 228.528 41.7438C228.528 42.7057 229.307 43.4856 230.268 43.4856Z" fill="#E6E6E6"/>
<path d="M222.146 405.194C223.107 405.194 223.887 404.414 223.887 403.452C223.887 402.49 223.107 401.71 222.146 401.71C221.185 401.71 220.406 402.49 220.406 403.452C220.406 404.414 221.185 405.194 222.146 405.194Z" fill="#E6E6E6"/>
<path d="M136.283 368.616C137.244 368.616 138.023 367.837 138.023 366.875C138.023 365.913 137.244 365.133 136.283 365.133C135.321 365.133 134.542 365.913 134.542 366.875C134.542 367.837 135.321 368.616 136.283 368.616Z" fill="#E6E6E6"/>
<path d="M408.377 305.912C409.339 305.912 410.118 305.133 410.118 304.171C410.118 303.209 409.339 302.429 408.377 302.429C407.416 302.429 406.637 303.209 406.637 304.171C406.637 305.133 407.416 305.912 408.377 305.912Z" fill="#E6E6E6"/>
<path d="M86.0806 135.742C88.9643 135.742 91.302 133.402 91.302 130.516C91.302 127.63 88.9643 125.291 86.0806 125.291C83.1968 125.291 80.8591 127.63 80.8591 130.516C80.8591 133.402 83.1968 135.742 86.0806 135.742Z" fill="white"/>
<path d="M204.161 210.695C204.161 226.302 180.05 262.668 173.004 272.962C172.791 273.273 172.506 273.528 172.173 273.704C171.84 273.88 171.469 273.972 171.092 273.972C170.715 273.972 170.344 273.88 170.011 273.704C169.678 273.528 169.393 273.273 169.18 272.962C162.134 262.668 138.023 226.302 138.023 210.695C138.023 206.349 138.878 202.046 140.54 198.031C142.202 194.016 144.638 190.368 147.709 187.294C150.779 184.221 154.425 181.784 158.437 180.121C162.449 178.458 166.749 177.602 171.092 177.602C175.435 177.602 179.735 178.458 183.747 180.121C187.759 181.784 191.405 184.221 194.475 187.294C197.546 190.368 199.982 194.016 201.644 198.031C203.306 202.046 204.161 206.349 204.161 210.695Z" fill="#F9F9F9"/>
<path d="M171.092 225.21C180.384 225.21 187.917 217.672 187.917 208.373C187.917 199.074 180.384 191.536 171.092 191.536C161.8 191.536 154.267 199.074 154.267 208.373C154.267 217.672 161.8 225.21 171.092 225.21Z" fill="#0DE872"/>
<path d="M170.802 291.978C181.536 291.978 190.237 290.289 190.237 288.205C190.237 286.12 181.536 284.431 170.802 284.431C160.068 284.431 151.366 286.12 151.366 288.205C151.366 290.289 160.068 291.978 170.802 291.978Z" fill="#F9F9F9"/>
<path d="M473.906 184.581C473.759 184.867 473.634 185.164 473.534 185.469L445.812 193.177L440.816 188.285L432.453 194.865L440.456 204.386C441.102 205.155 441.981 205.694 442.959 205.921C443.937 206.148 444.963 206.051 445.882 205.645L475.828 192.417C476.844 193.122 478.05 193.502 479.287 193.504C480.523 193.507 481.732 193.133 482.751 192.432C483.77 191.731 484.551 190.736 484.991 189.579C485.432 188.422 485.509 187.159 485.215 185.957C484.92 184.755 484.266 183.672 483.341 182.85C482.416 182.029 481.263 181.509 480.035 181.36C478.807 181.211 477.563 181.439 476.468 182.014C475.374 182.59 474.48 183.485 473.906 184.581Z" fill="#FFB8B8"/>
<path d="M444.835 193.629L434.43 201.734C434.134 201.965 433.792 202.129 433.426 202.215C433.061 202.301 432.682 202.308 432.314 202.234C431.946 202.161 431.599 202.008 431.295 201.788C430.991 201.568 430.738 201.285 430.553 200.958L424.087 189.504C422.916 187.982 422.396 186.057 422.642 184.151C422.887 182.246 423.878 180.516 425.396 179.34C426.915 178.165 428.837 177.64 430.741 177.88C432.646 178.121 434.377 179.108 435.556 180.624L445.035 189.678C445.306 189.937 445.518 190.252 445.657 190.601C445.796 190.95 445.858 191.324 445.839 191.699C445.82 192.074 445.721 192.441 445.547 192.774C445.374 193.107 445.131 193.399 444.835 193.629Z" fill="#6C63FF"/>
<path d="M476.564 180.748L487.116 185.499C487.558 185.698 487.903 186.064 488.074 186.518C488.246 186.971 488.231 187.474 488.032 187.916L486.783 190.695C486.93 190.762 487.045 190.884 487.102 191.035C487.159 191.186 487.154 191.354 487.089 191.501L486.589 192.613C486.522 192.76 486.4 192.874 486.249 192.932C486.098 192.989 485.931 192.984 485.784 192.918L485.284 194.03C485.431 194.097 485.546 194.219 485.603 194.37C485.66 194.521 485.655 194.688 485.589 194.836L485.09 195.947C485.023 196.094 484.901 196.209 484.75 196.266C484.599 196.324 484.432 196.319 484.285 196.253L477.538 211.259C477.339 211.701 476.973 212.046 476.52 212.218C476.067 212.39 475.564 212.375 475.123 212.176L464.571 207.425C464.129 207.226 463.784 206.86 463.612 206.407C463.44 205.953 463.455 205.45 463.654 205.008L474.148 181.665C474.347 181.223 474.713 180.878 475.166 180.706C475.619 180.534 476.122 180.549 476.564 180.748Z" fill="#3F3D56"/>
<path d="M466.486 205.947L474.951 209.762C475.376 209.952 475.858 209.966 476.292 209.802C476.727 209.638 477.079 209.308 477.272 208.885L481.181 200.182L482.539 197.165L486.078 189.291C486.267 188.868 486.28 188.386 486.116 187.952C485.952 187.519 485.623 187.167 485.201 186.975L482.539 185.775L476.73 183.16C476.306 182.971 475.824 182.957 475.39 183.123C474.956 183.289 474.606 183.62 474.416 184.044L470.993 191.656L467.095 200.322L465.61 203.631C465.42 204.055 465.406 204.537 465.57 204.971C465.734 205.405 466.064 205.756 466.486 205.947Z" fill="#F2F2F2"/>
<path d="M448.799 313.777L455.911 313.776L459.295 286.321L448.797 286.322L448.799 313.777Z" fill="#FFB8B8"/>
<path d="M446.985 311.453L460.992 311.452C462.164 311.452 463.326 311.683 464.409 312.132C465.492 312.581 466.476 313.239 467.305 314.069C468.133 314.898 468.791 315.883 469.24 316.967C469.688 318.051 469.919 319.212 469.919 320.385V320.676L446.985 320.676L446.985 311.453Z" fill="#2F2E41"/>
<path d="M467.364 312.035L474.476 312.034L477.861 284.579L467.363 284.58L467.364 312.035Z" fill="#FFB8B8"/>
<path d="M465.55 309.712L479.557 309.711C480.729 309.711 481.89 309.942 482.973 310.391C484.057 310.84 485.041 311.498 485.87 312.327C486.698 313.157 487.356 314.142 487.805 315.225C488.253 316.309 488.484 317.471 488.484 318.644V318.934L465.55 318.935L465.55 309.712Z" fill="#2F2E41"/>
<path d="M416.895 249.352C418.41 253.847 421.284 257.76 425.12 260.549C428.955 263.338 433.562 264.864 438.302 264.917L438.662 264.923C442.334 265.028 446.645 263.843 450.874 262.142C459.229 258.781 467.252 253.399 469.381 251.918L465.773 286.632L464.311 300.705C464.274 301.069 464.314 301.437 464.427 301.785C464.541 302.133 464.726 302.453 464.971 302.725C465.216 302.996 465.515 303.214 465.849 303.363C466.183 303.512 466.544 303.59 466.91 303.591H475.92C476.498 303.591 477.059 303.4 477.517 303.047C477.975 302.694 478.302 302.199 478.449 301.64L493.325 244.945C493.771 243.248 493.807 241.469 493.429 239.756C493.052 238.042 492.272 236.443 491.155 235.091C490.037 233.739 488.614 232.672 487.003 231.98C485.392 231.288 483.639 230.989 481.89 231.11L450.991 233.229L453.149 224.59L425.568 222.755L425.487 222.813C424.825 223.295 424.181 223.8 423.566 224.328C422.029 225.63 420.666 227.124 419.511 228.776C417.445 231.738 416.128 235.158 415.673 238.741C415.217 242.325 415.636 245.966 416.895 249.352Z" fill="#2F2E41"/>
<path d="M416.895 249.352C418.41 253.847 421.284 257.76 425.12 260.549C428.955 263.337 433.562 264.864 438.302 264.917C442.836 262.621 447.21 260.024 451.396 257.143L450.874 262.142L446.326 305.93C446.289 306.294 446.329 306.662 446.442 307.01C446.556 307.358 446.741 307.678 446.986 307.95C447.231 308.222 447.53 308.439 447.864 308.588C448.198 308.737 448.559 308.815 448.925 308.816H457.935C458.513 308.816 459.074 308.625 459.532 308.272C459.99 307.919 460.317 307.424 460.464 306.865L465.773 286.631L475.34 250.17C475.786 248.473 475.822 246.694 475.444 244.981C475.067 243.267 474.287 241.668 473.17 240.316C472.052 238.964 470.629 237.897 469.018 237.205C467.407 236.513 465.654 236.214 463.905 236.335L433.006 238.454L435.164 229.815L419.511 228.775C417.445 231.738 416.128 235.158 415.673 238.741C415.217 242.325 415.636 245.966 416.895 249.352Z" fill="#2F2E41"/>
<path d="M423.527 226.331L423.319 226.306L418.507 202.626C418.466 202.421 414.532 181.996 426.593 171.318L426.802 169.857C426.856 169.483 426.99 169.125 427.196 168.808C427.401 168.491 427.673 168.222 427.992 168.02C428.311 167.819 428.67 167.688 429.044 167.639C429.419 167.589 429.799 167.622 430.16 167.733L441.522 171.26C442.165 171.459 442.707 171.898 443.033 172.487C443.36 173.076 443.446 173.769 443.274 174.42L442.169 178.624C443.701 180.424 461.729 202.145 455.449 218.88L452.637 229.883L423.527 226.331Z" fill="#0DE872"/>
<path d="M470.706 207.85C470.434 208.021 470.176 208.213 469.935 208.425L442.146 200.96L440.33 194.205L429.785 195.616L431.84 207.887C432.006 208.878 432.489 209.789 433.216 210.482C433.943 211.175 434.876 211.614 435.873 211.732L468.381 215.575C468.897 216.699 469.743 217.64 470.807 218.271C471.87 218.903 473.101 219.195 474.335 219.11C475.568 219.025 476.747 218.565 477.713 217.793C478.68 217.021 479.389 215.973 479.745 214.788C480.102 213.603 480.09 212.337 479.71 211.159C479.331 209.981 478.602 208.947 477.62 208.194C476.639 207.441 475.452 207.004 474.217 206.943C472.981 206.882 471.757 207.198 470.706 207.85Z" fill="#FFB8B8"/>
<path d="M441.076 200.852L427.998 202.538C427.626 202.586 427.248 202.553 426.89 202.441C426.532 202.33 426.201 202.142 425.922 201.892C425.643 201.641 425.421 201.333 425.271 200.989C425.121 200.645 425.047 200.272 425.054 199.897L425.304 186.744C425.069 184.837 425.6 182.915 426.779 181.4C427.958 179.884 429.69 178.898 431.595 178.658C433.499 178.419 435.421 178.944 436.939 180.12C438.457 181.296 439.447 183.027 439.691 184.932L443.255 197.551C443.357 197.912 443.38 198.291 443.322 198.662C443.264 199.033 443.127 199.387 442.921 199.701C442.714 200.014 442.442 200.279 442.124 200.478C441.805 200.676 441.448 200.804 441.076 200.852Z" fill="#0DE872"/>
<path d="M437.395 164.519C445.265 164.519 451.644 158.135 451.644 150.259C451.644 142.383 445.265 135.999 437.395 135.999C429.525 135.999 423.146 142.383 423.146 150.259C423.146 158.135 429.525 164.519 437.395 164.519Z" fill="#FFB8B8"/>
<path d="M436.645 151.45L434.861 148.199C431.482 161.978 437.451 173.381 437.451 173.381L414.284 162.582L414.504 158.75L412.212 161.353L408.918 159.537L408.483 157.052L405.997 157.668L415.072 141.186C423.881 125.503 436.686 131.491 436.686 131.491C457.059 130.521 454.571 150.636 454.571 150.636L436.645 151.45Z" fill="#2F2E41"/>
<path d="M274.439 257.717C277.724 255.61 273.729 243.506 265.515 230.684C257.301 217.862 247.979 209.176 244.694 211.283C241.409 213.391 245.404 225.494 253.618 238.317C261.832 251.139 271.154 259.825 274.439 257.717Z" fill="#3F3D56"/>
</g>
<defs>
<clipPath id="clip0_114_1550">
<rect width="570" height="443" fill="white"/>
</clipPath>
</defs>
</svg>
