<svg width="400" height="330" viewBox="0 0 400 330" fill="none" xmlns="http://www.w3.org/2000/svg">
<g clip-path="url(#clip0_114_1684)">
<path d="M399.421 20.7972H0.578871C0.425345 20.7972 0.278106 20.7364 0.169547 20.628C0.0609876 20.5197 0 20.3728 0 20.2195C0 20.0663 0.0609876 19.9194 0.169547 19.8111C0.278106 19.7027 0.425345 19.6418 0.578871 19.6418H399.421C399.575 19.6418 399.722 19.7027 399.83 19.8111C399.939 19.9194 400 20.0663 400 20.2195C400 20.3728 399.939 20.5197 399.83 20.628C399.722 20.7364 399.575 20.7972 399.421 20.7972Z" fill="#F9F9F9"/>
<path d="M13.608 12.7095C17.1248 12.7095 19.9756 9.86435 19.9756 6.35473C19.9756 2.84511 17.1248 0 13.608 0C10.0913 0 7.24045 2.84511 7.24045 6.35473C7.24045 9.86435 10.0913 12.7095 13.608 12.7095Z" fill="#121214"/>
<path d="M35.6051 12.7095C39.1219 12.7095 41.9727 9.86435 41.9727 6.35473C41.9727 2.84511 39.1219 0 35.6051 0C32.0884 0 29.2375 2.84511 29.2375 6.35473C29.2375 9.86435 32.0884 12.7095 35.6051 12.7095Z" fill="#121214"/>
<path d="M57.6023 12.7095C61.119 12.7095 63.9698 9.86435 63.9698 6.35473C63.9698 2.84511 61.119 0 57.6023 0C54.0855 0 51.2347 2.84511 51.2347 6.35473C51.2347 9.86435 54.0855 12.7095 57.6023 12.7095Z" fill="#121214"/>
<path d="M250.543 79.616H149.457C148.194 79.616 146.983 79.1153 146.09 78.2242C145.197 77.3331 144.695 76.1245 144.695 74.8642C144.695 73.604 145.197 72.3954 146.09 71.5043C146.983 70.6132 148.194 70.1125 149.457 70.1125H250.543C251.806 70.1125 253.017 70.6132 253.91 71.5043C254.803 72.3954 255.305 73.604 255.305 74.8642C255.305 76.1245 254.803 77.3331 253.91 78.2242C253.017 79.1153 251.806 79.616 250.543 79.616Z" fill="#F9F9F9"/>
<path d="M234.245 63.3503H165.755C164.493 63.349 163.284 62.8477 162.392 61.9568C161.5 61.0658 160.999 59.858 160.999 58.5986C160.999 57.3393 161.5 56.1315 162.392 55.2405C163.284 54.3496 164.493 53.8483 165.755 53.8469H234.245C235.508 53.8469 236.719 54.3476 237.612 55.2387C238.505 56.1298 239.006 57.3384 239.006 58.5986C239.006 59.8589 238.505 61.0675 237.612 61.9586C236.719 62.8497 235.508 63.3503 234.245 63.3503Z" fill="#F9F9F9"/>
<g filter="url(#filter0_d_114_1684)">
<path d="M71.6251 213.882C94.9633 213.882 113.883 195.001 113.883 171.71C113.883 148.419 94.9633 129.537 71.6251 129.537C48.2868 129.537 29.3675 148.419 29.3675 171.71C29.3675 195.001 48.2868 213.882 71.6251 213.882Z" fill="#F9F9F9"/>
</g>
<g filter="url(#filter1_d_114_1684)">
<path d="M344.852 213.882C368.19 213.882 387.11 195.001 387.11 171.71C387.11 148.419 368.19 129.537 344.852 129.537C321.514 129.537 302.595 148.419 302.595 171.71C302.595 195.001 321.514 213.882 344.852 213.882Z" fill="#F9F9F9"/>
</g>
<g filter="url(#filter2_d_114_1684)">
<path d="M200.134 213.882C223.473 213.882 242.392 195.001 242.392 171.71C242.392 148.419 223.473 129.537 200.134 129.537C176.796 129.537 157.877 148.419 157.877 171.71C157.877 195.001 176.796 213.882 200.134 213.882Z" fill="#F9F9F9"/>
</g>
<path d="M365.39 189.987C362.06 188.236 358.585 186.776 355.002 185.624L354.545 180.581L336.018 178.589L333.663 185.035L327.014 187.525C326.776 187.615 326.549 187.733 326.339 187.876H326.332C325.243 187.968 324.195 188.33 323.282 188.928C322.662 189.323 322.112 189.816 321.651 190.387C322.551 191.068 323.485 191.699 324.448 192.302L324.491 192.323C324.765 192.492 325.046 192.66 325.327 192.821C325.833 193.123 326.353 193.41 326.873 193.684L327.204 193.852C327.963 194.245 328.736 194.617 329.53 194.961C329.692 195.031 329.868 195.101 330.029 195.171C330.043 195.178 330.05 195.178 330.064 195.185C330.437 195.339 330.809 195.487 331.189 195.627C332.436 196.102 333.707 196.51 334.998 196.848C338.293 197.724 341.688 198.167 345.098 198.166C346.343 198.166 347.572 198.11 348.789 197.991C351.567 197.735 354.31 197.182 356.97 196.343C356.976 196.343 356.984 196.335 356.991 196.335C358.671 195.801 360.313 195.152 361.904 194.393C361.911 194.385 361.925 194.385 361.932 194.378C362.291 194.21 362.635 194.028 362.986 193.852L363.155 193.768C363.436 193.621 363.717 193.474 363.999 193.319C364.701 192.934 365.39 192.527 366.071 192.092C366.261 191.98 366.444 191.86 366.634 191.734C366.901 191.559 367.168 191.376 367.428 191.187C366.775 190.766 366.093 190.366 365.39 189.987Z" fill="#04C35C"/>
<path d="M344.554 175.401C351.923 175.401 357.898 169.439 357.898 162.084C357.898 154.73 351.923 148.768 344.554 148.768C337.185 148.768 331.211 154.73 331.211 162.084C331.211 169.439 337.185 175.401 344.554 175.401Z" fill="#A0616A"/>
<path d="M335.595 155.598C336.977 157.229 339.314 157.689 341.471 157.878C345.85 158.262 352.218 157.64 356.498 156.654C356.803 159.608 355.97 162.794 357.714 165.224C358.532 162.282 359.007 159.255 359.131 156.205C359.261 154.896 359.09 153.574 358.63 152.341C358.384 151.724 357.97 151.187 357.434 150.792C356.898 150.398 356.261 150.162 355.597 150.11C356.591 149.357 357.756 148.86 358.988 148.663L354.751 146.538L355.839 145.424L348.168 144.955L350.39 143.547C347.046 143.088 343.663 142.982 340.297 143.229C338.734 143.344 337.1 143.563 335.833 144.467C334.567 145.371 333.835 147.167 334.621 148.494C333.637 148.656 332.71 149.065 331.929 149.684C331.147 150.303 330.537 151.11 330.156 152.03C329.674 153.492 329.558 155.05 329.817 156.568C330.106 159.002 330.673 161.396 331.507 163.702L335.595 155.598Z" fill="#373A3E"/>
<path d="M202.478 148.876C205.594 148.876 208.12 146.355 208.12 143.246C208.12 140.136 205.594 137.615 202.478 137.615C199.363 137.615 196.837 140.136 196.837 143.246C196.837 146.355 199.363 148.876 202.478 148.876Z" fill="#2F2E41"/>
<path d="M197.584 146.175C196.871 145.51 196.342 144.671 196.051 143.741C195.76 142.811 195.715 141.821 195.922 140.869C196.129 139.916 196.58 139.034 197.231 138.307C197.882 137.581 198.71 137.035 199.636 136.724C198.861 136.837 198.118 137.11 197.454 137.526C196.79 137.941 196.221 138.49 195.781 139.137C195.342 139.785 195.043 140.516 194.902 141.285C194.762 142.054 194.783 142.844 194.966 143.605C195.148 144.365 195.487 145.079 195.961 145.701C196.435 146.324 197.034 146.841 197.72 147.219C198.405 147.598 199.162 147.83 199.942 147.9C200.722 147.971 201.509 147.879 202.251 147.629C201.413 147.753 200.559 147.686 199.751 147.434C198.943 147.182 198.202 146.752 197.584 146.175L197.584 146.175Z" fill="#2F2E41"/>
<path d="M202.592 179.323C211.746 179.323 219.166 171.918 219.166 162.783C219.166 153.648 211.746 146.243 202.592 146.243C193.439 146.243 186.019 153.648 186.019 162.783C186.019 171.918 193.439 179.323 202.592 179.323Z" fill="#2F2E41"/>
<path d="M187.848 153.676C190.704 150.471 194.696 148.499 198.981 148.175C203.267 147.851 207.51 149.202 210.817 151.942C210.682 151.813 210.547 151.684 210.407 151.559C207.133 148.632 202.828 147.123 198.439 147.363C194.05 147.604 189.937 149.575 187.004 152.842C184.071 156.109 182.558 160.406 182.8 164.786C183.041 169.166 185.015 173.271 188.289 176.198C188.321 176.226 188.352 176.254 188.384 176.282C188.525 176.407 188.669 176.525 188.813 176.644C185.699 173.688 183.858 169.64 183.678 165.355C183.499 161.07 184.994 156.882 187.849 153.676H187.848Z" fill="#2F2E41"/>
<path d="M202.452 179.183C208.347 179.183 213.126 174.414 213.126 168.53C213.126 162.647 208.347 157.878 202.452 157.878C196.557 157.878 191.778 162.647 191.778 168.53C191.778 174.414 196.557 179.183 202.452 179.183Z" fill="#A0616A"/>
<path d="M221.553 196.286V199.86C220.897 200.278 220.235 200.669 219.559 201.04C219.289 201.188 219.019 201.33 218.748 201.472L218.586 201.553C218.248 201.721 217.917 201.897 217.572 202.058C217.566 202.065 217.552 202.065 217.545 202.072C216.016 202.802 214.437 203.426 212.822 203.94C212.815 203.94 212.809 203.947 212.802 203.947C210.244 204.754 207.607 205.285 204.936 205.531C203.767 205.646 202.584 205.7 201.388 205.7C198.11 205.701 194.846 205.275 191.678 204.432C190.062 204.008 188.477 203.474 186.934 202.834C186.921 202.827 186.914 202.827 186.9 202.82C186.745 202.753 186.576 202.686 186.42 202.618C185.657 202.288 184.913 201.93 184.184 201.553L183.866 201.391C183.089 200.979 182.325 200.548 181.575 200.082L181.535 200.062C180.38 199.344 179.265 198.563 178.197 197.722C177.649 197.304 177.122 196.866 176.609 196.407C176.338 196.178 176.068 195.935 175.811 195.699C174.824 194.789 173.888 193.825 173.007 192.813C173.124 192.11 173.295 191.418 173.52 190.742L173.527 190.735C173.567 190.62 173.615 190.508 173.669 190.398C173.706 190.301 173.749 190.207 173.797 190.115C175.007 187.856 177.196 187.296 179.913 187.175C181.447 187.107 183.143 187.181 184.934 187.161C185.88 187.154 186.86 187.121 187.84 187.033C194.023 186.473 192.901 182.832 193.178 180.869C193.455 178.968 195.172 180.613 195.286 180.721L195.293 180.728C198.792 182.362 202.663 183.039 206.51 182.69C207.173 182.609 207.835 182.562 208.497 182.542C210.241 182.522 209.862 183.021 209.261 183.432C208.969 183.624 208.664 183.795 208.349 183.944C208.349 183.944 208.071 185.63 207.788 188.153C207.517 190.567 216.039 191.403 217.708 191.929H217.714C218.667 192.279 219.517 192.86 220.188 193.621C220.858 194.382 221.327 195.298 221.553 196.286Z" fill="#04C35C"/>
<path d="M191.637 167.83C192.102 167.83 192.48 167.139 192.48 166.288C192.48 165.437 192.102 164.746 191.637 164.746C191.172 164.746 190.794 165.437 190.794 166.288C190.794 167.139 191.172 167.83 191.637 167.83Z" fill="#A0616A"/>
<path d="M213.267 167.83C213.732 167.83 214.11 167.139 214.11 166.288C214.11 165.437 213.732 164.746 213.267 164.746C212.802 164.746 212.424 165.437 212.424 166.288C212.424 167.139 212.802 167.83 213.267 167.83Z" fill="#A0616A"/>
<path d="M58.1054 174.663L60.1332 181.673L86.0469 181.217L85.8198 168.372C85.6401 158.205 78.4403 149.437 68.253 149.616C58.0657 149.795 51.5881 158.39 51.7678 168.557L53.2478 181.794L57.4728 181.72L58.1054 174.663Z" fill="#121214"/>
<path d="M69.411 179.565C75.8323 179.565 81.0378 174.37 81.0378 167.961C81.0378 161.553 75.8323 156.358 69.411 156.358C62.9897 156.358 57.7842 161.553 57.7842 167.961C57.7842 174.37 62.9897 179.565 69.411 179.565Z" fill="#FFB6B6"/>
<path d="M82.1389 159.814C82.1235 158.925 81.8448 158.061 81.338 157.331C81.2845 157.256 81.2307 157.186 81.1769 157.116C80.7461 156.567 80.194 156.126 79.5638 155.825C78.9336 155.525 78.2423 155.374 77.5439 155.384L69.1872 155.534L60.8358 155.679C59.6394 155.703 58.5012 156.199 57.6703 157.058C56.8393 157.917 56.3834 159.07 56.4022 160.264L58.3907 164.26L59.5353 166.555L59.7235 166.448C66.9515 162.394 69.9073 162.34 79.4734 166.11L79.6668 166.185L80.4246 164.249L82.1442 159.857L82.1389 159.814Z" fill="#121214"/>
<path d="M92.5541 186.056C90.0602 183.573 81.623 184.56 81.623 184.56L59.3528 185.96C54.4137 186.324 49.9639 190.272 48.3518 191.87C48.6095 192.122 48.8731 192.369 49.1421 192.605C54.0911 196.995 60.3121 199.698 66.9037 200.323C73.4953 200.948 80.115 199.462 85.8037 196.08C88.1899 194.659 91.243 192.955 93.1561 190.965C93.914 190.182 94.5204 190.198 95.1922 189.34C94.6893 187.991 93.7643 186.839 92.5541 186.056Z" fill="#04C35C"/>
<g filter="url(#filter3_d_114_1684)">
<path d="M71.625 326C94.9633 326 113.883 307.119 113.883 283.828C113.883 260.537 94.9633 241.656 71.625 241.656C48.2868 241.656 29.3674 260.537 29.3674 283.828C29.3674 307.119 48.2868 326 71.625 326Z" fill="#F9F9F9"/>
</g>
<g filter="url(#filter4_d_114_1684)">
<path d="M344.852 326C368.191 326 387.11 307.119 387.11 283.828C387.11 260.537 368.191 241.656 344.852 241.656C321.514 241.656 302.595 260.537 302.595 283.828C302.595 307.119 321.514 326 344.852 326Z" fill="#F9F9F9"/>
</g>
<g filter="url(#filter5_d_114_1684)">
<path d="M200.134 326C223.473 326 242.392 307.119 242.392 283.828C242.392 260.537 223.473 241.656 200.134 241.656C176.796 241.656 157.877 260.537 157.877 283.828C157.877 307.119 176.796 326 200.134 326Z" fill="#F9F9F9"/>
</g>
<path d="M70.9332 291.877C77.3852 291.877 82.6156 286.657 82.6156 280.218C82.6156 273.779 77.3852 268.559 70.9332 268.559C64.4811 268.559 59.2507 273.779 59.2507 280.218C59.2507 286.657 64.4811 291.877 70.9332 291.877Z" fill="#FFB8B8"/>
<path d="M59.881 285.866C59.881 285.866 60.8736 284.126 60.6428 278.315C60.4121 272.503 69.2794 275.79 76.689 275.236C84.0986 274.681 82.5301 284.938 82.5301 284.938C82.5301 284.938 83.0647 284.328 84.2092 279.378C85.3537 274.428 82.7551 269.495 82.7551 269.495C81.9897 264.293 77.8652 265.96 77.8652 265.96C79.8515 266.732 79.47 268.382 79.47 268.382C77.7886 265.44 73.6641 267.107 73.6641 267.107C68.1631 263.662 62.588 268.199 62.588 268.199C55.9425 269.704 59.8398 274.978 59.8398 274.978C53.1567 278.349 59.881 285.866 59.881 285.866Z" fill="#2F2E41"/>
<path d="M90.4264 307.581C87.0965 305.83 83.6207 304.37 80.038 303.218L79.5808 298.175L61.0537 296.183L58.6991 302.629L52.0502 305.119C51.8122 305.209 51.5856 305.327 51.3751 305.47H51.368C50.2794 305.562 49.231 305.923 48.3179 306.522C47.6985 306.916 47.1478 307.409 46.6875 307.981C47.5871 308.661 48.5214 309.292 49.4844 309.896L49.5269 309.917C49.801 310.085 50.0823 310.253 50.363 310.415C50.8694 310.716 51.3895 311.004 51.9096 311.277L52.24 311.446C52.9989 311.839 53.7722 312.21 54.5664 312.554C54.728 312.624 54.9039 312.694 55.0655 312.765C55.0793 312.772 55.0865 312.772 55.1003 312.779C55.4731 312.933 55.8454 313.08 56.2249 313.22C57.4717 313.696 58.7434 314.103 60.0344 314.441C63.3292 315.317 66.7246 315.761 70.1344 315.76C71.3787 315.76 72.6086 315.704 73.8248 315.584C76.6031 315.328 79.3458 314.776 82.0059 313.936C82.0125 313.936 82.0203 313.929 82.0269 313.929C83.7074 313.395 85.349 312.745 86.9401 311.986C86.9467 311.979 86.961 311.979 86.9682 311.972C87.3267 311.804 87.6709 311.621 88.0222 311.446L88.191 311.362C88.4723 311.214 88.7536 311.067 89.0349 310.913C89.7375 310.527 90.4264 310.12 91.1076 309.685C91.2973 309.573 91.4804 309.454 91.6702 309.328C91.9371 309.152 92.204 308.97 92.4644 308.78C91.8108 308.36 91.1291 307.96 90.4264 307.581Z" fill="#04C35C"/>
<path d="M216.201 307.114L209.168 306.476L204.959 303.409C204.96 303.403 204.958 303.397 204.954 303.393L204.943 303.398L204.775 303.273L204.753 303.469L197.65 306.195L190.352 304.514L187.827 307.24L176.58 310.964C176.039 311.323 175.563 311.772 175.174 312.291L175.174 312.299C175.647 312.667 176.132 313.031 176.623 313.375C177.738 314.179 178.897 314.921 180.093 315.597C183.006 317.255 186.119 318.532 189.358 319.396C189.651 319.478 189.944 319.554 190.238 319.624C190.748 319.749 191.264 319.868 191.78 319.965C192.822 320.182 193.878 320.352 194.946 320.475C196.515 320.665 198.095 320.759 199.676 320.757C200.756 320.757 201.826 320.715 202.885 320.632C204.745 320.483 206.593 320.202 208.413 319.792C208.478 319.776 208.544 319.765 208.609 319.743C211.397 319.105 214.107 318.164 216.689 316.936C217.086 316.746 217.482 316.551 217.873 316.351C218.834 315.857 219.768 315.326 220.675 314.757C221.359 314.335 222.027 313.885 222.679 313.419C223.081 313.131 223.477 312.839 223.868 312.535L223.826 312.446C223.132 310.97 222.063 309.702 220.725 308.766C219.388 307.831 217.828 307.262 216.201 307.114Z" fill="#04C35C"/>
<path d="M209.483 272.084C208.662 271.273 207.736 270.575 206.73 270.009C200.512 266.584 193.719 266.524 188.093 269.841C186.694 270.663 185.416 271.675 184.297 272.848C181.14 276.136 179.372 280.51 179.36 285.064V298.569H214.756V283.682C214.756 279.693 212.557 275.076 209.483 272.084Z" fill="#121214"/>
<path d="M196.359 298.201C203.419 298.201 209.143 292.489 209.143 285.443C209.143 278.397 203.419 272.685 196.359 272.685C189.298 272.685 183.575 278.397 183.575 285.443C183.575 292.489 189.298 298.201 196.359 298.201Z" fill="#FFB8B8"/>
<path d="M209.472 273.862C209.446 273.591 209.35 273.33 209.193 273.107C209.035 272.884 208.823 272.705 208.576 272.588C200.577 268.86 192.464 268.957 184.476 272.881H184.329L184.28 273.082C182.706 285.189 182.928 285.454 183.026 285.563C183.18 285.738 183.371 285.877 183.585 285.969C183.782 286.056 183.995 286.1 184.21 286.099H202.445L202.489 285.893C202.7 284.81 202.972 283.738 203.303 282.685C204.03 283.743 204.699 284.839 205.307 285.969L205.383 286.099H208.929C208.996 286.099 209.064 286.094 209.13 286.083C209.496 286.039 209.834 285.864 210.08 285.59C210.178 285.487 210.406 285.237 209.472 273.862Z" fill="#121214"/>
<path d="M354.411 305.477L353.951 300.375L335.183 298.357L332.807 304.886L326.069 307.405C325.825 307.495 325.593 307.614 325.376 307.759C324.031 307.881 322.752 308.399 321.703 309.248C321.857 309.375 322.01 309.497 322.164 309.618C322.195 309.65 322.232 309.676 322.264 309.703C322.693 310.035 323.132 310.363 323.577 310.674C323.693 310.759 323.81 310.843 323.931 310.923C324.907 311.613 325.918 312.253 326.959 312.84C327.954 313.405 328.975 313.926 330.023 314.403C331.948 315.281 333.943 315.997 335.988 316.543C336.274 316.622 336.559 316.696 336.845 316.764C337.343 316.886 337.845 317.002 338.348 317.097C339.364 317.308 340.393 317.474 341.434 317.594C342.963 317.779 344.503 317.871 346.044 317.868C347.097 317.868 348.14 317.828 349.172 317.747C350.985 317.601 352.785 317.328 354.559 316.928C354.623 316.912 354.686 316.902 354.75 316.881C357.467 316.259 360.108 315.341 362.625 314.145C363.011 313.96 363.398 313.77 363.779 313.574C364.716 313.094 365.626 312.576 366.51 312.021C366.827 311.826 367.14 311.625 367.452 311.414C362.652 308.192 355.681 305.884 354.411 305.477Z" fill="#04C35C"/>
<path d="M343.834 295.126C351.297 295.126 357.348 289.088 357.348 281.639C357.348 274.19 351.297 268.152 343.834 268.152C336.37 268.152 330.319 274.19 330.319 281.639C330.319 289.088 336.37 295.126 343.834 295.126Z" fill="#A0616A"/>
<path d="M334.763 275.068C336.162 276.72 338.529 277.186 340.713 277.376C345.148 277.764 351.598 277.134 355.932 276.136C356.244 279.128 355.399 282.354 357.164 284.816C357.992 281.836 358.474 278.771 358.599 275.681C358.731 274.355 358.557 273.017 358.092 271.768C357.843 271.142 357.423 270.599 356.88 270.199C356.337 269.8 355.693 269.56 355.02 269.508C355.169 269.355 355.271 269.164 355.315 268.956C355.358 268.747 355.342 268.531 355.268 268.332C355.105 267.628 354.745 266.984 354.231 266.476C353.717 265.967 353.069 265.614 352.362 265.458L347.497 264.288C347.497 264.288 342.931 262.29 339.521 262.541C337.938 262.657 336.283 262.879 335 263.795C333.717 264.71 332.976 266.53 333.773 267.873C332.776 268.037 331.837 268.452 331.046 269.078C330.254 269.705 329.636 270.523 329.25 271.455C328.762 272.936 328.644 274.513 328.907 276.05C329.2 278.516 329.774 280.941 330.618 283.276L334.763 275.068Z" fill="#373A3E"/>
<path d="M213.983 160.378C213.573 159.068 212.659 157.973 211.441 157.334C210.233 156.708 208.942 156.255 207.607 155.988C205.273 155.318 202.855 154.988 200.426 155.008C198.004 155.126 195.529 155.961 193.883 157.738C192.238 159.516 191.628 162.338 192.827 164.441L192.694 164.985C194.615 165.213 196.561 164.88 198.297 164.027C200.032 163.174 201.483 161.837 202.473 160.178C203.381 161.61 204.671 162.76 206.198 163.501C207.726 164.241 209.429 164.542 211.118 164.37C211.657 164.327 212.182 164.176 212.662 163.927C213.231 163.552 213.666 163.006 213.904 162.368C214.141 161.73 214.169 161.033 213.983 160.378Z" fill="#2F2E41"/>
<path d="M386.242 3.88698H370.612C370.305 3.88698 370.01 3.76525 369.793 3.54857C369.576 3.33189 369.454 3.03801 369.454 2.73158C369.454 2.42514 369.576 2.13126 369.793 1.91458C370.01 1.6979 370.305 1.57617 370.612 1.57617H386.242C386.549 1.57617 386.843 1.6979 387.06 1.91458C387.277 2.13126 387.399 2.42514 387.399 2.73158C387.399 3.03801 387.277 3.33189 387.06 3.54857C386.843 3.76525 386.549 3.88698 386.242 3.88698Z" fill="#121214"/>
<path d="M386.242 8.21974H370.612C370.305 8.21974 370.01 8.09801 369.793 7.88133C369.576 7.66465 369.454 7.37077 369.454 7.06434C369.454 6.75791 369.576 6.46402 369.793 6.24734C370.01 6.03066 370.305 5.90894 370.612 5.90894H386.242C386.549 5.90894 386.843 6.03066 387.06 6.24734C387.277 6.46402 387.399 6.75791 387.399 7.06434C387.399 7.37077 387.277 7.66465 387.06 7.88133C386.843 8.09801 386.549 8.21974 386.242 8.21974Z" fill="#121214"/>
<path d="M386.242 12.5525H370.612C370.305 12.5525 370.01 12.4308 369.793 12.2141C369.576 11.9974 369.454 11.7035 369.454 11.3971C369.454 11.0907 369.576 10.7968 369.793 10.5801C370.01 10.3634 370.305 10.2417 370.612 10.2417H386.242C386.549 10.2417 386.843 10.3634 387.06 10.5801C387.277 10.7968 387.399 11.0907 387.399 11.3971C387.399 11.7035 387.277 11.9974 387.06 12.2141C386.843 12.4308 386.549 12.5525 386.242 12.5525Z" fill="#121214"/>
</g>
<defs>
<filter id="filter0_d_114_1684" x="25.3675" y="129.537" width="92.5152" height="92.3445" filterUnits="userSpaceOnUse" color-interpolation-filters="sRGB">
<feFlood flood-opacity="0" result="BackgroundImageFix"/>
<feColorMatrix in="SourceAlpha" type="matrix" values="0 0 0 0 0 0 0 0 0 0 0 0 0 0 0 0 0 0 127 0" result="hardAlpha"/>
<feOffset dy="4"/>
<feGaussianBlur stdDeviation="2"/>
<feComposite in2="hardAlpha" operator="out"/>
<feColorMatrix type="matrix" values="0 0 0 0 0 0 0 0 0 0 0 0 0 0 0 0 0 0 0.25 0"/>
<feBlend mode="normal" in2="BackgroundImageFix" result="effect1_dropShadow_114_1684"/>
<feBlend mode="normal" in="SourceGraphic" in2="effect1_dropShadow_114_1684" result="shape"/>
</filter>
<filter id="filter1_d_114_1684" x="298.595" y="129.537" width="92.5152" height="92.3445" filterUnits="userSpaceOnUse" color-interpolation-filters="sRGB">
<feFlood flood-opacity="0" result="BackgroundImageFix"/>
<feColorMatrix in="SourceAlpha" type="matrix" values="0 0 0 0 0 0 0 0 0 0 0 0 0 0 0 0 0 0 127 0" result="hardAlpha"/>
<feOffset dy="4"/>
<feGaussianBlur stdDeviation="2"/>
<feComposite in2="hardAlpha" operator="out"/>
<feColorMatrix type="matrix" values="0 0 0 0 0 0 0 0 0 0 0 0 0 0 0 0 0 0 0.25 0"/>
<feBlend mode="normal" in2="BackgroundImageFix" result="effect1_dropShadow_114_1684"/>
<feBlend mode="normal" in="SourceGraphic" in2="effect1_dropShadow_114_1684" result="shape"/>
</filter>
<filter id="filter2_d_114_1684" x="153.877" y="129.537" width="92.5152" height="92.3445" filterUnits="userSpaceOnUse" color-interpolation-filters="sRGB">
<feFlood flood-opacity="0" result="BackgroundImageFix"/>
<feColorMatrix in="SourceAlpha" type="matrix" values="0 0 0 0 0 0 0 0 0 0 0 0 0 0 0 0 0 0 127 0" result="hardAlpha"/>
<feOffset dy="4"/>
<feGaussianBlur stdDeviation="2"/>
<feComposite in2="hardAlpha" operator="out"/>
<feColorMatrix type="matrix" values="0 0 0 0 0 0 0 0 0 0 0 0 0 0 0 0 0 0 0.25 0"/>
<feBlend mode="normal" in2="BackgroundImageFix" result="effect1_dropShadow_114_1684"/>
<feBlend mode="normal" in="SourceGraphic" in2="effect1_dropShadow_114_1684" result="shape"/>
</filter>
<filter id="filter3_d_114_1684" x="25.3674" y="241.656" width="92.5152" height="92.3445" filterUnits="userSpaceOnUse" color-interpolation-filters="sRGB">
<feFlood flood-opacity="0" result="BackgroundImageFix"/>
<feColorMatrix in="SourceAlpha" type="matrix" values="0 0 0 0 0 0 0 0 0 0 0 0 0 0 0 0 0 0 127 0" result="hardAlpha"/>
<feOffset dy="4"/>
<feGaussianBlur stdDeviation="2"/>
<feComposite in2="hardAlpha" operator="out"/>
<feColorMatrix type="matrix" values="0 0 0 0 0 0 0 0 0 0 0 0 0 0 0 0 0 0 0.25 0"/>
<feBlend mode="normal" in2="BackgroundImageFix" result="effect1_dropShadow_114_1684"/>
<feBlend mode="normal" in="SourceGraphic" in2="effect1_dropShadow_114_1684" result="shape"/>
</filter>
<filter id="filter4_d_114_1684" x="298.595" y="241.656" width="92.5152" height="92.3445" filterUnits="userSpaceOnUse" color-interpolation-filters="sRGB">
<feFlood flood-opacity="0" result="BackgroundImageFix"/>
<feColorMatrix in="SourceAlpha" type="matrix" values="0 0 0 0 0 0 0 0 0 0 0 0 0 0 0 0 0 0 127 0" result="hardAlpha"/>
<feOffset dy="4"/>
<feGaussianBlur stdDeviation="2"/>
<feComposite in2="hardAlpha" operator="out"/>
<feColorMatrix type="matrix" values="0 0 0 0 0 0 0 0 0 0 0 0 0 0 0 0 0 0 0.25 0"/>
<feBlend mode="normal" in2="BackgroundImageFix" result="effect1_dropShadow_114_1684"/>
<feBlend mode="normal" in="SourceGraphic" in2="effect1_dropShadow_114_1684" result="shape"/>
</filter>
<filter id="filter5_d_114_1684" x="153.877" y="241.656" width="92.5152" height="92.3445" filterUnits="userSpaceOnUse" color-interpolation-filters="sRGB">
<feFlood flood-opacity="0" result="BackgroundImageFix"/>
<feColorMatrix in="SourceAlpha" type="matrix" values="0 0 0 0 0 0 0 0 0 0 0 0 0 0 0 0 0 0 127 0" result="hardAlpha"/>
<feOffset dy="4"/>
<feGaussianBlur stdDeviation="2"/>
<feComposite in2="hardAlpha" operator="out"/>
<feColorMatrix type="matrix" values="0 0 0 0 0 0 0 0 0 0 0 0 0 0 0 0 0 0 0.25 0"/>
<feBlend mode="normal" in2="BackgroundImageFix" result="effect1_dropShadow_114_1684"/>
<feBlend mode="normal" in="SourceGraphic" in2="effect1_dropShadow_114_1684" result="shape"/>
</filter>
<clipPath id="clip0_114_1684">
<rect width="400" height="330" fill="white"/>
</clipPath>
</defs>
</svg>
